<svg xmlns="http://www.w3.org/2000/svg" viewBox="0 0 200 60" width="200" height="60">
  <!-- Background Circle -->
  <circle cx="30" cy="30" r="28" fill="#FF6B35" opacity="0.1"/>

  <!-- Dumpster Body -->
  <path d="M 15 28 L 18 35 L 42 35 L 45 28 Z" fill="#FF6B35" stroke="#333" stroke-width="1.5"/>
  <rect x="18" y="35" width="24" height="8" fill="#FFB800" stroke="#333" stroke-width="1.5"/>

  <!-- Dumpster Details -->
  <line x1="20" y1="30" x2="20" y2="35" stroke="#333" stroke-width="1"/>
  <line x1="25" y1="30" x2="25" y2="35" stroke="#333" stroke-width="1"/>
  <line x1="30" y1="30" x2="30" y2="35" stroke="#333" stroke-width="1"/>
  <line x1="35" y1="30" x2="35" y2="35" stroke="#333" stroke-width="1"/>
  <line x1="40" y1="30" x2="40" y2="35" stroke="#333" stroke-width="1"/>

  <!-- Wheels -->
  <circle cx="22" cy="43" r="3" fill="#333"/>
  <circle cx="38" cy="43" r="3" fill="#333"/>
  <circle cx="22" cy="43" r="1.5" fill="#666"/>
  <circle cx="38" cy="43" r="1.5" fill="#666"/>

  <!-- Eagle Wing (left) -->
  <path d="M 25 18 Q 20 20 18 22 Q 16 20 14 22" fill="none" stroke="#0066CC" stroke-width="2" stroke-linecap="round"/>

  <!-- Eagle Wing (right) -->
  <path d="M 35 18 Q 40 20 42 22 Q 44 20 46 22" fill="none" stroke="#0066CC" stroke-width="2" stroke-linecap="round"/>

  <!-- Eagle Body -->
  <ellipse cx="30" cy="20" rx="4" ry="5" fill="#0066CC"/>
  <circle cx="30" cy="18" r="3" fill="white"/>
  <circle cx="29" cy="18" r="1" fill="#333"/>
  <path d="M 32 19 L 35 20" stroke="#FFB800" stroke-width="1.5" stroke-linecap="round"/>

  <!-- Company Name -->
  <text x="62" y="28" font-family="Arial, sans-serif" font-size="18" font-weight="bold" fill="#0066CC">
    Quick Haul
  </text>
  <text x="62" y="45" font-family="Arial, sans-serif" font-size="16" font-weight="600" fill="#FF6B35">
    Haulers
  </text>
</svg>